<svg xmlns="http://www.w3.org/2000/svg" xmlns:xlink="http://www.w3.org/1999/xlink" width="500" zoomAndPan="magnify" viewBox="0 0 375 374.999991" height="500" preserveAspectRatio="xMidYMid meet" version="1.0"><defs><clipPath id="fbeaf4617f"><path d="M 194 128 L 375 128 L 375 331.59375 L 194 331.59375 Z M 194 128 " clip-rule="nonzero"/></clipPath><clipPath id="bd65686a0a"><path d="M 0 128 L 275 128 L 275 331.59375 L 0 331.59375 Z M 0 128 " clip-rule="nonzero"/></clipPath><clipPath id="bef098f93f"><path d="M 0 43.59375 L 247 43.59375 L 247 331 L 0 331 Z M 0 43.59375 " clip-rule="nonzero"/></clipPath></defs><g clip-path="url(#fbeaf4617f)"><path fill="#051d40" d="M 337.976562 218.175781 C 333.085938 168.097656 290.875 128.964844 239.515625 128.964844 C 223.265625 128.964844 207.933594 132.886719 194.410156 139.832031 C 199.746094 143.152344 204.808594 146.976562 209.523438 151.277344 C 227.824219 167.976562 239.480469 190.476562 242.542969 214.894531 C 265.230469 225.199219 279.734375 247.578125 279.734375 272.683594 C 279.734375 299.171875 263.421875 321.910156 240.320312 331.414062 L 316.097656 331.414062 C 348.539062 331.414062 374.835938 305.117188 374.835938 272.683594 C 374.835938 247.976562 359.578125 226.851562 337.976562 218.175781 " fill-opacity="1" fill-rule="nonzero"/></g><g clip-path="url(#bd65686a0a)"><path fill="#051d40" d="M 238.125 218.175781 C 233.230469 168.097656 191.019531 128.964844 139.660156 128.964844 C 114.296875 128.964844 91.171875 138.507812 73.664062 154.199219 C 111.441406 205.800781 169.238281 266.261719 254.917969 316.867188 C 267.210938 306.101562 274.980469 290.300781 274.980469 272.683594 C 274.980469 247.976562 259.722656 226.851562 238.125 218.175781 Z M 58.746094 170.976562 C 49.449219 184.171875 43.296875 199.738281 41.375 216.589844 C 17.472656 224.027344 0.117188 246.328125 0.117188 272.683594 C 0.117188 305.117188 26.414062 331.414062 58.851562 331.414062 L 216.242188 331.414062 C 226.871094 331.414062 236.832031 328.578125 245.433594 323.640625 C 242.003906 324.820312 238.003906 325.832031 233.6875 326.226562 C 233.6875 326.226562 124.40625 262.03125 58.746094 170.976562 " fill-opacity="1" fill-rule="nonzero"/></g><g clip-path="url(#bef098f93f)"><path fill="#051d40" d="M 223.386719 330.984375 C 223.386719 330.984375 41.582031 225.59375 0.117188 43.585938 C 0.117188 43.585938 51.972656 208.835938 246.75 322.882812 C 246.75 322.882812 236.519531 329.777344 223.386719 330.984375 " fill-opacity="1" fill-rule="nonzero"/></g></svg>